<svg xmlns="http://www.w3.org/2000/svg" width="202.46" height="202.46" viewBox="0 0 202.46 202.46"><path d="M173.535.004h-48.176v.129c-4.623.195-8.057.864-10.303 2.002-2.246 1.14-3.776 3.012-4.59 5.615-.814 2.604-1.221 6.479-1.221 11.621v60.156c0 9.57-.635 17.79-1.904 24.658-1.27 6.869-3.369 12.777-6.299 17.725-3.386 5.729-8.317 10.271-14.795 13.623-6.479 3.353-13.754 5.029-21.826 5.029-14.648 0-25.847-3.613-33.594-10.84-3.972-3.711-7.016-7.633-9.131-11.768-2.116-4.134-3.598-9.131-4.443-14.99-.847-5.859-1.27-13.477-1.27-22.852V17.32c0-5.013-.407-8.658-1.221-10.938a8.332 8.332 0 0 0-1.178-2.222C5.305 9.194-.227 18.301-.227 28.699v145.067c0 15.847 12.848 28.694 28.695 28.694h145.066c15.847 0 28.694-12.848 28.694-28.694V28.699C202.229 12.852 189.382.004 173.535.004z"/><path d="M40.35 1.695c-2.182.847-3.679 2.409-4.492 4.688-.814 2.28-1.221 5.925-1.221 10.938v66.211c0 10.678.716 19.531 2.148 26.562 1.432 7.031 4.443 12.695 9.033 16.992s11.377 6.445 20.361 6.445c14.127 0 24.056-4.524 29.785-13.574 5.729-9.049 8.594-21.777 8.594-38.184V19.371c0-4.947-.57-8.755-1.709-11.426-1.14-2.669-2.995-4.59-5.566-5.762C94.711 1.011 91.082.328 86.394.132V.004H50.848v.129C46.029.328 42.53.85 40.35 1.695z"/></svg>